<svg width="82" height="82" viewBox="0 0 82 82" fill="none" xmlns="http://www.w3.org/2000/svg">
<g clip-path="url(#clip0_1639_9366)">
<path d="M57.7997 22.6099L16.6635 46.3599M34.0618 18.9945L45.8919 29.4849L51.6066 59.3831L28.5714 39.4849L25.4015 23.9945M49.9792 59.6372L17.1452 47.5603C16.5888 47.3556 16.3105 47.2532 16.1206 47.0693C15.9532 46.9072 15.8344 46.7015 15.7777 46.4754C15.7134 46.219 15.7639 45.9268 15.8648 45.3426L18.7468 28.6676C18.8054 28.3283 18.8347 28.1587 18.9042 28.0088C18.9658 27.8759 19.0502 27.755 19.1536 27.6514C19.2703 27.5344 19.4194 27.4483 19.7176 27.2762L39.7457 15.7129C40.0439 15.5407 40.193 15.4547 40.3526 15.4121C40.4941 15.3743 40.641 15.3617 40.7868 15.3748C40.9514 15.3896 41.113 15.449 41.4361 15.5679L57.3181 21.4096C57.8745 21.6142 58.1528 21.7166 58.3427 21.9005C58.5101 22.0626 58.6289 22.2684 58.6856 22.4944C58.7499 22.7509 58.6994 23.043 58.5984 23.6272L52.6404 58.1007C52.5 58.9129 52.4298 59.319 52.214 59.5769C52.0247 59.8032 51.7614 59.9552 51.4707 60.006C51.1395 60.064 50.7527 59.9217 49.9792 59.6372Z" stroke="white" stroke-width="2.5" stroke-linecap="round" stroke-linejoin="round"/>
</g>
<defs>
<clipPath id="clip0_1639_9366">
<rect width="60" height="60" fill="white" transform="matrix(-0.866025 0.5 0.5 0.866025 51.9609 0)"/>
</clipPath>
</defs>
</svg>
